<?xml version="1.0" encoding="utf-8"?>
<!-- Generator: Adobe Illustrator 23.0.1, SVG Export Plug-In . SVG Version: 6.00 Build 0)  -->
<svg version="1.1" id="Слой_1" xmlns="http://www.w3.org/2000/svg" xmlns:xlink="http://www.w3.org/1999/xlink" x="0px" y="0px"
	 viewBox="0 0 704 136" style="enable-background:new 0 0 704 136;" xml:space="preserve">
<style type="text/css">
	.st0{fill-rule:evenodd;clip-rule:evenodd;fill:currentColor;}
	.st1{fill-rule:evenodd;clip-rule:evenodd;fill:url(#SVGID_1_);filter:url(#Adobe_OpacityMaskFilter);}
	.st2{mask:url(#id0_1_);fill:currentColor;}
</style>
<g id="Слой_x0020_1">
	<path class="st0" d="M518,136.2l9-36h44.2l9,36h13l-33-135.8h-22.3l-33,135.8H518z M548.7,15.5h2.8l17.9,75.6h-40.6l17.9-75.6
		C546.7,15.5,548.7,15.5,548.7,15.5z"/>
	<polygon class="st0" points="481,136.2 481,0.4 407.4,0.4 407.4,136.2 420.5,136.2 420.5,9.5 467.9,9.5 467.9,136.2 	"/>
	<polygon class="st0" points="374.2,136.2 374.2,0.4 361.1,0.4 361.1,62.9 313.7,62.9 313.7,0.4 300.6,0.4 300.6,136.2 313.7,136.2
		313.7,72 361.1,72 361.1,136.2 	"/>
	<polygon class="st0" points="254.2,56.4 254.2,136.2 267.3,136.2 267.3,0.4 250.4,0.4 218.5,83.4 218.5,83.4 216.3,89.1
		210.1,105.2 210,105.2 204.7,119.1 204.8,80.2 204.8,80.2 204.8,0.4 191.7,0.4 191.7,136.2 207.8,136.2 246.7,37.4 254.3,17.7 	"/>
	<path class="st0" d="M705.4,136.2l-33-135.8h-22.3l-33,135.8H705.4z M674.1,127.4h-41.8l20.3-85.3l6.3-26.6h4.8l6.7,28.4l19.9,83.5
		H674.1L674.1,127.4z"/>
	<defs>
		<filter id="Adobe_OpacityMaskFilter" filterUnits="userSpaceOnUse" x="0.6" y="0.1" width="141.1" height="136.7">
			<feColorMatrix  type="matrix" values="1 0 0 0 0  0 1 0 0 0  0 0 1 0 0  0 0 0 1 0"/>
		</filter>
	</defs>
	<mask maskUnits="userSpaceOnUse" x="0.6" y="0.1" width="141.1" height="136.7" id="id0_1_">

			<linearGradient id="SVGID_1_" gradientUnits="userSpaceOnUse" x1="-6767.1353" y1="1378.7108" x2="914.7757" y2="7104.5903" gradientTransform="matrix(2.834646e-02 0 0 -2.834646e-02 326.4756 60.2677)">
			<stop  offset="0" style="stop-color:#FFFFFF"/>
			<stop  offset="1" style="stop-color:#FFFFFF;stop-opacity:0"/>
		</linearGradient>
		<rect x="0.6" y="0.1" class="st1" width="141.1" height="136.7"/>
	</mask>
	<path class="st2" d="M50,0.1c6.7,0,13.1,1.3,18.9,3.7c0.8,0.3,1.5,0.6,2.2,1c0.7-0.3,1.5-0.7,2.2-1c5.8-2.4,12.2-3.7,18.9-3.7
		c6.7,0,13.1,1.3,18.9,3.7c6.1,2.5,11.5,6.2,16.1,10.7c4.6,4.6,8.2,10,10.7,16c2.4,5.8,3.7,12.2,3.7,18.9s-1.3,13.1-3.7,18.9
		c-2.5,6.1-6.2,11.5-10.7,16c-2.1,2.1-4.3,4-6.7,5.6c-0.3,5.7-1.6,11.2-3.7,16.2c-2.5,6.1-6.2,11.5-10.7,16c-4.6,4.6-10,8.2-16,10.7
		c-5.8,2.4-12.2,3.7-18.9,3.7c-6.7,0-13.1-1.3-18.9-3.7c-6.1-2.5-11.5-6.2-16.1-10.7c-4.6-4.6-8.2-10-10.7-16
		c-2.1-5-3.4-10.5-3.7-16.2c-2.4-1.7-4.6-3.6-6.7-5.6c-4.6-4.6-8.2-10-10.7-16C2,62.6,0.6,56.2,0.6,49.6S2,36.5,4.4,30.7
		c2.5-6.1,6.2-11.5,10.7-16c4.6-4.6,10-8.2,16-10.7C37,1.5,43.4,0.1,50,0.1L50,0.1z M109.7,95.8c-5.4,2-11.3,3.2-17.4,3.2
		c-6.7,0-13.1-1.3-18.9-3.7c-0.8-0.3-1.5-0.6-2.2-1c-0.7,0.3-1.5,0.7-2.2,1C63.1,97.6,56.7,99,50,99c-6.1,0-12-1.1-17.4-3.2
		c0.5,2.3,1.2,4.6,2.1,6.7c2,4.8,4.9,9.2,8.6,12.8c3.6,3.6,8,6.6,12.8,8.6c4.6,1.9,9.7,3,15.1,3s10.4-1.1,15.1-3
		c4.8-2,9.2-4.9,12.8-8.6c3.6-3.6,6.6-8,8.6-12.8C108.5,100.4,109.2,98.1,109.7,95.8L109.7,95.8z M71.2,38c6.1,0,12,1.1,17.4,3.2
		c-0.5-2.3-1.2-4.6-2.1-6.7c-2-4.8-4.9-9.2-8.6-12.8c-2-2-4.3-3.9-6.8-5.4c-2.4,1.6-4.7,3.4-6.8,5.4c-3.6,3.6-6.6,8-8.6,12.8
		c-0.9,2.1-1.6,4.4-2.1,6.7C59.2,39.1,65,38,71.2,38z M99.4,46.9c2.4,1.7,4.6,3.6,6.7,5.6c4.6,4.6,8.2,10,10.7,16
		c1.2,3,2.2,6.2,2.8,9.4c0.2-0.2,0.4-0.3,0.5-0.5c3.6-3.6,6.6-8,8.6-12.8c1.9-4.6,3-9.7,3-15.1c0-5.4-1.1-10.4-3-15.1
		c-2-4.8-4.9-9.2-8.6-12.8c-3.6-3.6-8-6.6-12.8-8.6c-4.6-1.9-9.7-3-15.1-3c-3.7,0-7.3,0.5-10.7,1.5c1.2,1,2.3,2,3.3,3
		c4.6,4.6,8.2,10,10.7,16C97.8,35.7,99.1,41.2,99.4,46.9L99.4,46.9z M22.7,77.9c0.6-3.3,1.6-6.4,2.8-9.4c2.5-6.1,6.2-11.5,10.7-16
		c2.1-2.1,4.3-4,6.7-5.6c0.3-5.7,1.6-11.2,3.7-16.2c2.5-6.1,6.2-11.5,10.7-16.1c1.1-1.1,2.2-2.1,3.3-3c-3.4-0.9-7-1.5-10.7-1.5
		c-5.4,0-10.4,1.1-15.1,3c-4.8,2-9.2,4.9-12.8,8.6c-3.6,3.6-6.6,8-8.6,12.8c-1.9,4.6-3,9.7-3,15.1s1.1,10.4,3,15.1
		c2,4.8,4.9,9.2,8.6,12.8C22.3,77.6,22.5,77.8,22.7,77.9L22.7,77.9z M99.1,59.5c-0.2-0.2-0.3-0.3-0.5-0.5c-0.6,3.3-1.6,6.4-2.8,9.4
		c-2.5,6.1-6.2,11.5-10.7,16c-1.1,1.1-2.2,2.1-3.3,3c3.4,0.9,7,1.5,10.7,1.5c5.4,0,10.4-1.1,15.1-3c1.1-0.4,2.1-0.9,3.1-1.4
		c-0.3-4.3-1.3-8.4-2.9-12.2C105.6,67.5,102.7,63.2,99.1,59.5L99.1,59.5z M89.4,52.4c-1-0.5-2.1-1-3.1-1.5c-4.6-1.9-9.7-3-15.1-3
		c-5.4,0-10.4,1.1-15.1,3C55,51.4,54,51.9,53,52.4c0.3,4.3,1.3,8.4,2.9,12.2c2,4.8,4.9,9.2,8.6,12.8c2,2,4.3,3.9,6.8,5.4
		c2.4-1.6,4.7-3.4,6.8-5.4c3.6-3.6,6.6-8,8.6-12.8C88.1,60.8,89.1,56.7,89.4,52.4L89.4,52.4z M43.8,59c-0.2,0.2-0.4,0.3-0.5,0.5
		c-3.6,3.6-6.6,8-8.6,12.8c-1.6,3.8-2.6,7.9-2.9,12.2c1,0.5,2.1,1,3.1,1.5c4.6,1.9,9.7,3,15.1,3c3.7,0,7.3-0.5,10.7-1.5
		c-1.2-1-2.3-2-3.3-3c-4.6-4.6-8.2-10-10.7-16.1C45.4,65.4,44.4,62.3,43.8,59L43.8,59z"/>
</g>
</svg>
