<svg width="44" height="44" viewBox="0 0 44 44" fill="none" xmlns="http://www.w3.org/2000/svg">
<mask id="mask0_118_1366" style="mask-type:luminance" maskUnits="userSpaceOnUse" x="0" y="0" width="44" height="44">
<path d="M44 0H0V44H44V0Z" fill="url(#paint0_linear_118_1366)"/>
</mask>
<g mask="url(#mask0_118_1366)">
<path d="M15.4047 0C17.494 0 19.4897 0.418435 21.2984 1.19093C21.5478 1.28749 21.7661 1.38405 21.9844 1.5128C22.2027 1.41624 22.4522 1.28749 22.6704 1.19093C24.4791 0.418435 26.4748 0 28.5641 0C30.6534 0 32.6492 0.418435 34.4578 1.19093C36.36 1.99561 38.0439 3.18654 39.4784 4.63497C40.9128 6.11558 42.0354 7.85369 42.815 9.78493C43.5634 11.6518 43.9688 13.7118 43.9688 15.8683C43.9688 18.0249 43.5634 20.0849 42.815 21.9517C42.0354 23.9151 40.8816 25.6533 39.4784 27.1017C38.8235 27.7776 38.1375 28.3892 37.3891 28.9042C37.2955 30.7388 36.8902 32.5091 36.2353 34.1185C35.4557 36.0819 34.3019 37.82 32.8987 39.2685C31.4642 40.7491 29.7803 41.9078 27.9093 42.7125C26.1006 43.485 24.1049 43.9034 22.0156 43.9034C19.9263 43.9034 17.9305 43.485 16.1219 42.7125C14.2197 41.9078 12.5358 40.7169 11.1013 39.2685C9.6669 37.7879 8.5443 36.0497 7.76471 34.1185C7.10985 32.5091 6.70446 30.7388 6.61091 28.9042C5.86251 28.357 5.17647 27.7454 4.52162 27.1017C3.08717 25.6211 1.96456 23.883 1.18498 21.9517C0.43657 20.117 0 18.0571 0 15.9327C0 13.8083 0.43657 11.7162 1.18498 9.84931C1.96456 7.88588 3.11836 6.14777 4.52162 4.69934C5.95606 3.21873 7.63997 2.05999 9.51099 1.2553C11.3508 0.450622 13.3466 0 15.4047 0ZM34.0213 30.8032C32.3373 31.447 30.4975 31.8332 28.5953 31.8332C26.506 31.8332 24.5103 31.4148 22.7016 30.6423C22.4522 30.5457 22.2339 30.4492 22.0156 30.3204C21.7973 30.417 21.5478 30.5457 21.3296 30.6423C19.4897 31.3826 17.494 31.8332 15.4047 31.8332C13.5025 31.8332 11.6627 31.4792 9.97874 30.8032C10.1347 31.5435 10.3529 32.2838 10.6336 32.9598C11.2573 34.5048 12.1616 35.921 13.3154 37.0797C14.438 38.2385 15.8101 39.2041 17.3069 39.8478C18.7413 40.4594 20.3317 40.8135 22.0156 40.8135C23.6995 40.8135 25.2587 40.4594 26.7243 39.8478C28.2211 39.2041 29.5932 38.2707 30.7158 37.0797C31.8384 35.921 32.7739 34.5048 33.3976 32.9598C33.6471 32.2838 33.8653 31.5435 34.0213 30.8032ZM22.0156 12.199C23.9178 12.199 25.7576 12.553 27.4415 13.229C27.2856 12.4887 27.0673 11.7484 26.7867 11.0724C26.163 9.52743 25.2587 8.11119 24.1049 6.95245C23.4812 6.30871 22.764 5.69715 21.9844 5.21434C21.236 5.72933 20.5188 6.30871 19.8639 6.95245C18.7413 8.11119 17.8058 9.52743 17.1821 11.0724C16.9015 11.7484 16.6832 12.4887 16.5273 13.229C18.2736 12.553 20.0822 12.199 22.0156 12.199ZM30.8094 15.0636C31.5578 15.6108 32.2438 16.2224 32.8987 16.8661C34.3331 18.3467 35.4557 20.0849 36.2353 22.0161C36.6095 22.9817 36.9213 24.0117 37.1084 25.0417C37.1708 24.9773 37.2332 24.9451 37.2644 24.8808C38.387 23.722 39.3225 22.3058 39.9461 20.7608C40.5386 19.2802 40.8816 17.6386 40.8816 15.9005C40.8816 14.1624 40.5386 12.553 39.9461 11.0402C39.3225 9.49525 38.4181 8.07901 37.2644 6.92026C36.1417 5.76152 34.7697 4.7959 33.2729 4.15216C31.8384 3.5406 30.2481 3.18654 28.5641 3.18654C27.4103 3.18654 26.2877 3.34748 25.2275 3.66935C25.6017 3.99122 25.9447 4.31309 26.2566 4.63497C27.691 6.11558 28.8136 7.85369 29.5932 9.78493C30.3104 11.4587 30.7158 13.229 30.8094 15.0636ZM6.89157 25.0417C7.07867 23.9795 7.3905 22.9817 7.76471 22.0161C8.5443 20.0527 9.69809 18.3146 11.1013 16.8661C11.7562 16.1902 12.4422 15.5786 13.1906 15.0636C13.2842 13.229 13.6896 11.4587 14.3444 9.84931C15.124 7.88588 16.2778 6.14777 17.6811 4.66715C18.0241 4.31309 18.3671 3.99122 18.7101 3.70154C17.6499 3.41185 16.5273 3.21873 15.3735 3.21873C13.6896 3.21873 12.1304 3.57279 10.6648 4.18435C9.16797 4.82809 7.79589 5.76152 6.67328 6.95245C5.55067 8.11119 4.61517 9.52743 3.9915 11.0724C3.39901 12.553 3.05599 14.1946 3.05599 15.9327C3.05599 17.6708 3.39901 19.2802 3.9915 20.793C4.61517 22.338 5.51949 23.7542 6.67328 24.913C6.76683 24.9451 6.8292 25.0095 6.89157 25.0417ZM30.7158 19.1192C30.6534 19.0549 30.6223 19.0227 30.5599 18.9583C30.3728 20.0205 30.061 21.0183 29.6867 21.9839C28.9072 23.9473 27.7534 25.6854 26.3501 27.1339C26.0071 27.4879 25.6641 27.8098 25.3211 28.0995C26.3813 28.3892 27.5039 28.5823 28.6577 28.5823C30.3416 28.5823 31.9008 28.2282 33.3664 27.6167C33.7094 27.4879 34.0213 27.327 34.3331 27.1661C34.2395 25.782 33.9277 24.4623 33.4288 23.2392C32.7427 21.6942 31.8384 20.3102 30.7158 19.1192ZM27.691 16.8339C27.3792 16.673 27.0361 16.5121 26.7243 16.3511C25.2899 15.7396 23.6995 15.3855 22.0156 15.3855C20.3317 15.3855 18.7725 15.7396 17.3069 16.3511C16.9639 16.5121 16.652 16.673 16.3402 16.8339C16.4337 18.218 16.7456 19.5377 17.2445 20.7608C17.8682 22.3058 18.7725 23.722 19.9263 24.8808C20.55 25.5245 21.2672 26.1361 22.0468 26.6189C22.7952 26.1039 23.5124 25.5245 24.1673 24.8808C25.2899 23.722 26.2254 22.3058 26.849 20.7608C27.2856 19.5377 27.5975 18.218 27.691 16.8339ZM13.4713 18.9583C13.4089 19.0227 13.3466 19.0549 13.3154 19.1192C12.1928 20.278 11.2573 21.6942 10.6336 23.2392C10.1347 24.4623 9.82282 25.782 9.72927 27.1661C10.0411 27.327 10.3841 27.4879 10.696 27.6489C12.1304 28.2604 13.7208 28.6145 15.4047 28.6145C16.5585 28.6145 17.6811 28.4536 18.7413 28.1317C18.3671 27.8098 18.0241 27.4879 17.7123 27.1661C16.2778 25.6854 15.1552 23.9473 14.3756 21.9839C13.9702 21.0183 13.6584 20.0205 13.4713 18.9583Z" fill="white"/>
</g>
<defs>
<linearGradient id="paint0_linear_118_1366" x1="41.802" y1="6.78705" x2="111.228" y2="-43.3475" gradientUnits="userSpaceOnUse">
<stop stop-color="white"/>
<stop offset="1" stop-color="white" stop-opacity="0"/>
</linearGradient>
</defs>
</svg>
